# xmcd
#
# Track frame offsets: 
#        182
#        20915
#        47360
#        65530
#        86812
#        112310
#        129500
#        157622
#        167752
#        189920
#        211355
#        226867
#        249815
#
# Disc length: 3483 seconds
#
# Revision: 24
# Processed by: cddbd v1.5.2PL0 Copyright (c) Steve Scherf et al.
# Submitted via: ExactAudioCopyFreeDBPlugin 1.0
#
DISCID=a40d990d
DTITLE=Diana Krall - Love Scenes
DYEAR=1997
DGENRE=Jazz
TTITLE0=All Or Nothing At All
TTITLE1=Peel Me A Grape
TTITLE2=I Don't Know Enough About You
TTITLE3=I Miss You So
TTITLE4=They Can't Take That Away From Me
TTITLE5=Lost Mind
TTITLE6=I Don't Stand A Ghost Of A Chance With You
TTITLE7=You're Getting To Be A Habit With Me
TTITLE8=Gentle Rain
TTITLE9=How Deep Is The Ocean (How High Is The Sky)
TTITLE10=My Love Is
TTITLE11=Garden In The Rain
TTITLE12=That Old Feeling
EXTD=YEAR: 1997
EXTT0=
EXTT1=
EXTT2=
EXTT3=
EXTT4=
EXTT5=
EXTT6=
EXTT7=
EXTT8=
EXTT9=
EXTT10=
EXTT11=
EXTT12=
PLAYORDER=
